<?xml version="1.0" encoding="utf-8"?>
<!-- Generator: Adobe Illustrator 24.3.0, SVG Export Plug-In . SVG Version: 6.00 Build 0)  -->
<svg version="1.1" xmlns="http://www.w3.org/2000/svg" xmlns:xlink="http://www.w3.org/1999/xlink" x="0px" y="0px"
	 viewBox="0 0 841.89 595.28" style="enable-background:new 0 0 841.89 595.28;" xml:space="preserve">
<style type="text/css">
	.st0{display:none;fill:none;stroke:#000000;stroke-miterlimit:10;}
	.st1{display:none;}
	.st2{display:inline;}
	.st3{fill:#FFFFFF;}
	.st4{display:inline;fill:none;stroke:#CE0D0D;stroke-miterlimit:10;}
</style>
<g id="Capa_1">
	<rect x="10.22" y="9.73" class="st0" width="821.97" height="576.35"/>
	<g>
		<path d="M213.01,317.79c0-0.76,0-1.57,0-2.59c0.54-0.03,1.11-0.08,1.68-0.08c11.09,0.01,22.19,0.02,33.28,0.04
			c3.56,0.01,4.72,1.24,4.76,4.81c0.12,10.01,0.19,20.01,0.47,30.01c0.1,3.6-1.31,6.39-3.53,8.97
			c-6.75,7.82-15.46,12.49-25.13,15.64c-8.2,2.67-16.63,2.9-25.14,2.39c-8.56-0.51-16.75-2.58-24.49-6.22
			c-17.49-8.21-29.03-21.55-33.57-40.42c-4.49-18.66-2.15-36.46,8.62-52.63c9.66-14.51,23.35-23.18,40.44-26.49
			c7.49-1.45,15.04-2.36,22.69-1.9c7.18,0.43,14.07,2.06,20.57,5.23c0.91,0.44,1.23,0.95,1.22,1.98
			c-0.02,8.64,0.03,17.29,0.05,25.93c0,0.54,0.04,1.09-0.02,1.63c-0.08,0.68,0.26,1.54-0.96,1.72c-1.07,0.16-1.55-0.23-2.01-1.12
			c-6.86-13.09-17.66-21.49-31.43-26.38c-6.38-2.26-12.62-1.27-18.59,1.16c-9.68,4.46-16.54,12.02-20.08,22.29
			c-3.76,10.92-5.18,22.14-3.55,33.59c2.53,17.9,10.74,32.68,24.97,43.99c6.26,4.97,12.84,9.28,20.69,11.45
			c10,2.76,19.2,1.05,27.85-4.39c1.62-1.02,2.26-2.66,2.26-4.46c0.04-9.95,0.05-19.91,0-29.86c-0.02-3.53-2.07-6-4.77-7.94
			c-4.54-3.26-9.66-5.15-15.15-6.04c-0.27-0.04-0.54-0.07-0.81-0.12C213.25,317.98,213.17,317.89,213.01,317.79z"/>
		<path d="M330.33,371.59c-2,0.66-3.83,1.28-5.67,1.86c-11.69,3.66-23.66,4.71-35.74,3.05c-6.61-0.91-11.44-4.62-14.13-11.13
			c-4.59-11.14,0.03-24,6.98-30.59c9.05-8.59,19.74-13.71,31.79-16.23c3.33-0.7,6.75-0.96,10.14-1.42c0.8-0.11,1.59-0.2,2.58-0.32
			c-1.3-7.7-1.89-15.49-7.73-21.43c-1.76-1.79-3.9-2.68-6.4-2.76c-5.53-0.18-10.97,0.5-16.12,2.51c-3.74,1.94-7.48,4.52-9.97,8.33
			c-3.98,6.09-6.71,12.66-7.75,19.88c-0.17,1.19-0.59,1.8-2.02,1.83c-0.75-1.97-1.55-4.03-2.33-6.09
			c-1.43-3.76-2.81-7.53-4.32-11.26c-0.42-1.05-0.23-1.66,0.52-2.41c3.86-3.83,8.44-6.66,13.09-9.37c6.94-4.05,14.4-6.74,22.4-7.42
			c9.34-0.8,18.68-0.86,27.47,3.31c2.51,1.19,4.63,2.79,6.18,5.13c2.76,4.19,4.71,8.7,5.17,13.72c1.03,11.41,1.92,22.84,2.96,34.26
			c0.67,7.35,1.5,14.69,2.28,22.04c0.29,2.75,0.65,5.5,0.9,8.26c0.1,1.18-0.72,1.59-1.78,1.61c-4.89,0.09-9.79,0.25-14.68,0.26
			c-3.49,0.01-3.49-0.08-3.69-3.65C330.43,372.95,330.38,372.37,330.33,371.59z M326.66,322.49c-0.31-0.05-0.52-0.1-0.72-0.1
			c-7.31,0.07-14.16,2.03-20.55,5.42c-3.78,2-7.06,4.96-9.01,8.75c-4.44,8.62-4.87,17.67-1.68,26.85c1.11,3.18,3.25,5.47,6.26,6.95
			c4.13,2.03,8.48,2.5,12.96,1.64c4.89-0.93,9.69-2.08,14.03-4.75c1.53-0.94,1.92-1.92,1.79-3.64c-0.82-10.29-1.5-20.59-2.24-30.89
			C327.24,329.31,326.94,325.92,326.66,322.49z"/>
		<path d="M611.79,217.72c0,4.02,0.05,7.93-0.01,11.83c-0.15,9.45-0.52,21.89-0.51,31.34c0.06,36.05,0.23,75.69,0.36,111.74
			c0,0.33,0.02,0.79,0.06,1.12c0.53,3.78-0.75,3.51-3.29,3.72c-4.71,0.39-9.43-0.01-14.16,0.18c-2.76,0.11-2.93-0.15-2.94-2.9
			c-0.1-34.31-0.21-71.74-0.35-106.05c-0.03-6.83-3.75-12.11-11.22-13.12c-4.74-0.64-9.44-1.5-14.17-2.22
			c-0.85-0.13-1.54-0.27-1.27-1.36c0.21-0.86-0.16-1.98,1.43-2.05c5.54-0.23,11.09-0.38,16.6-0.95c4.28-0.44,8.6-1.06,12.4-3.48
			c2.57-1.64,3.77-4.27,5.09-6.76c1.88-3.54,4.32-10.04,5.88-13.81c1.12-2.16,1.87-4.21,3.26-6.2
			C609.87,217.44,609.99,217.52,611.79,217.72z"/>
		<path d="M702.7,330.08c-19.93-0.08-37.92-0.28-57.71,0.57c0,0,0.48,7.7,0.99,9.55c2.42,8.9,5.51,13.04,12.58,19.18
			c12.7,11.03,30.78,10.09,41.47,2.9c0.31-0.21,0.77-0.21,1.16-0.3c0.08,0.44,0.26,0.88,0.23,1.31c-0.04,0.58-0.35,1.15-0.37,1.73
			c-0.08,1.94-1.3,2.95-2.82,3.86c-6.53,3.91-13.58,6.27-21.09,7.38c-8.54,1.27-17.05,0.97-25.44-0.94
			c-10.93-2.49-17.93-9.58-21.93-19.78c-4.17-10.65-4.85-21.78-4.11-33.06c0.36-5.58,1.63-10.96,4.29-15.93
			c4.88-9.13,12.11-15.05,22.5-17.07c8.81-1.71,17.61-1.96,26.14,0.61c13.49,4.06,21.16,13.56,23.24,27.43
			C702.43,321.59,702.41,325.74,702.7,330.08z M683.21,327.18c-0.57-8.45-1.5-18.2-5.59-25.67c-3.02-5.53-7.61-8.23-13.86-7.79
			c-5.82,0.41-10.79,2.52-13.98,7.8c-0.05,0.08-0.1,0.16-0.14,0.24c-2.99,4.99-4.59,10.69-4.7,16.51c-0.06,3.04-0.12,6.02-0.01,8.9
			C658.24,326.64,669.68,327.72,683.21,327.18z"/>
		<path d="M493.12,284.73c3.77-0.18,7.45-0.34,11.14-0.54c4.26-0.23,8.19-1.52,11.61-4.06c1.39-1.03,2.75-1.39,4.64-1.03
			c0,9.74,0,19.53,0,29.59c3-3.21,5.67-6.21,8.5-9.04c5.85-5.84,12.59-10.2,20.86-11.68c8.46-1.52,15.89,0.82,22.41,6.48
			c-6.84,6.17-13.6,12.27-20.49,18.48c-2.02-1.99-4-4.07-6.13-5.98c-1.73-1.56-3.53-3.08-5.49-4.32c-3.09-1.96-5.97-1.72-8.35,1.03
			c-3.76,4.34-7.24,8.93-10.77,13.46c-0.39,0.5-0.49,1.32-0.5,1.99c-0.19,14.73-0.35,29.47-0.52,44.2
			c-0.04,3.75-0.01,7.73-0.08,11.48c-0.04,1.94-0.45,2.23-2.31,2.25c-4.62,0.05-9.51-0.05-13.98-0.05
			c-2.75-0.07-3.27-0.06-3.25-2.87c0.1-9.56,0.34-19.13,0.36-28.69c0.02-11.85-0.15-23.7-0.21-35.55c-0.02-3.36,0.2-6.73,0.04-10.09
			c-0.21-4.67-2.41-8.44-6.07-11.26C493.18,287.48,492.66,286.42,493.12,284.73z"/>
		<path d="M360.12,254.04c2.54,0,4.54,0.11,6.53-0.02c5.75-0.36,11.27-1.67,16.5-4.18c0.99-0.47,2.39-0.37,3.65-0.55
			c0.01,0.75,0,1.15,0,1.57c-0.25,39.04-0.5,84.66-0.76,123.69c-0.02,2.94,0.48,2.68-2.7,2.79c-4.55,0.16-9.1,0.21-13.66,0.31
			c-0.59,0.01-1.17,0-2.05,0c0-1.13,0-2.08,0-3.03c0.19-31.47,0.35-69.53,0.59-101c0.05-6.61-1.53-12.34-7.2-16.43
			C360.45,256.79,360.51,255.5,360.12,254.04z"/>
		<path d="M463.53,371.49c-2,0.66-3.83,1.28-5.67,1.86c-11.69,3.66-23.66,4.71-35.74,3.05c-6.61-0.91-11.44-4.62-14.13-11.13
			c-4.59-11.14,0.03-24,6.98-30.59c9.05-8.59,19.74-13.71,31.79-16.23c3.33-0.7,6.75-0.96,10.14-1.42c0.8-0.11,1.59-0.2,2.58-0.32
			c-1.3-7.7-1.89-15.49-7.73-21.43c-1.76-1.79-3.9-2.68-6.4-2.76c-5.53-0.18-10.97,0.5-16.12,2.51c-3.74,1.94-7.48,4.52-9.97,8.33
			c-3.98,6.09-6.71,12.66-7.75,19.88c-0.17,1.19-0.59,1.8-2.02,1.83c-0.75-1.97-1.55-4.03-2.33-6.09
			c-1.43-3.76-2.81-7.53-4.32-11.26c-0.43-1.05-0.23-1.66,0.52-2.41c3.86-3.83,8.44-6.66,13.09-9.37c6.94-4.05,14.4-6.74,22.4-7.42
			c9.34-0.8,18.68-0.86,27.47,3.31c2.51,1.19,4.63,2.79,6.18,5.13c2.76,4.19,4.71,8.7,5.17,13.72c1.03,11.41,1.92,22.84,2.96,34.26
			c0.67,7.35,1.5,14.69,2.28,22.04c0.29,2.75,0.65,5.5,0.9,8.26c0.1,1.18-0.72,1.59-1.78,1.61c-4.89,0.09-9.79,0.25-14.68,0.26
			c-3.49,0.01-3.49-0.08-3.69-3.65C463.63,372.84,463.58,372.26,463.53,371.49z M459.86,322.38c-0.31-0.05-0.52-0.1-0.72-0.1
			c-7.31,0.07-14.16,2.03-20.55,5.42c-3.78,2-7.06,4.96-9.01,8.75c-4.44,8.62-4.87,17.67-1.68,26.85c1.11,3.18,3.25,5.47,6.26,6.95
			c4.13,2.03,8.48,2.5,12.96,1.64c4.89-0.93,9.69-2.08,14.03-4.75c1.53-0.94,1.92-1.92,1.79-3.64c-0.82-10.29-1.5-20.59-2.24-30.89
			C460.44,329.21,460.14,325.81,459.86,322.38z"/>
	</g>
	<g class="st1">
		<g class="st2">
			<path d="M9.93,97.43c0,0-0.17-4.28,1.6-4.45c6.13-0.58,12.28-0.97,18.38-2.42c4.74-1.13,17.53-2.71,21.74-8.88
				c2.85-4.18,4.17-10.9,5.64-17.28c2.08-9.05,4.78-25.66,6.51-35.28c1.24-5.51,2.07-10.75,3.61-15.85c1.02-3.38,2.39-3.92,2.39-3.9
				h0.13c0-0.02,703.25-4.46,704.27-1.08c1.54,5.1,2.37,10.34,3.61,15.85c1.73,9.62,4.43,26.23,6.51,35.28
				c1.47,6.38,2.79,13.1,5.64,17.28c4.21,6.17,16.99,7.75,21.74,8.88c6.1,1.45,12.25,1.84,18.38,2.42c1.76,0.17,1.6,4.45,1.6,4.45
				v-0.03c0,0,2.48,413.5,0.71,413.66c-6.13,0.58-12.28,0.97-18.38,2.42c-4.74,1.13-17.53,2.71-21.74,8.88
				c-2.85,4.18-4.17,10.9-5.64,17.28c-2.08,9.05-4.78,25.66-6.51,35.28c-1.24,5.51-2.07,10.75-3.61,15.85
				c-1.02,3.38-708.31,0.41-708.31,0.38l-0.13-0.01c0,0.02-1.37-0.52-2.39-3.9c-1.54-5.1-2.37-10.34-3.61-15.85
				c-1.73-9.62-4.43-26.23-6.51-35.28c-1.47-6.38-2.79-13.1-5.64-17.28c-4.21-6.17-16.99-7.75-21.74-8.88
				c-6.1-1.45-12.25-1.84-18.38-2.42C8.02,502.39,9.93,97.39,9.93,97.39V97.43z"/>
		</g>
		<g class="st2">
			<g>
				<path class="st3" d="M236.45,355.42c0-0.69,0-1.41,0-2.34c0.49-0.02,1-0.07,1.52-0.07c10,0.01,20.01,0.02,30.01,0.03
					c3.21,0,4.26,1.12,4.3,4.34c0.1,9.02,0.17,18.05,0.42,27.06c0.09,3.25-1.18,5.76-3.18,8.09c-6.09,7.05-13.94,11.27-22.66,14.11
					c-7.4,2.41-15,2.61-22.67,2.16c-7.72-0.46-15.1-2.33-22.08-5.6c-15.77-7.4-26.17-19.43-30.27-36.45
					c-4.05-16.83-1.94-32.87,7.77-47.45c8.71-13.08,21.05-20.9,36.46-23.89c6.76-1.31,13.56-2.13,20.46-1.71
					c6.48,0.39,12.69,1.85,18.55,4.71c0.82,0.4,1.11,0.86,1.1,1.79c-0.02,7.79,0.02,15.59,0.05,23.39c0,0.49,0.04,0.98-0.02,1.47
					c-0.07,0.61,0.23,1.39-0.86,1.55c-0.96,0.15-1.4-0.21-1.81-1.01c-6.19-11.8-15.93-19.38-28.34-23.79
					c-5.75-2.04-11.38-1.14-16.77,1.05c-8.73,4.02-14.92,10.84-18.11,20.09c-3.39,9.85-4.67,19.97-3.2,30.29
					c2.29,16.14,9.68,29.47,22.52,39.67c5.64,4.48,11.57,8.37,18.65,10.32c9.02,2.49,17.31,0.95,25.12-3.96
					c1.46-0.92,2.03-2.4,2.04-4.02c0.04-8.98,0.05-17.95,0-26.93c-0.02-3.19-1.87-5.41-4.3-7.16c-4.09-2.94-8.71-4.64-13.66-5.44
					c-0.24-0.04-0.49-0.06-0.73-0.11C236.67,355.58,236.59,355.51,236.45,355.42z"/>
				<path class="st3" d="M342.24,403.93c-1.81,0.59-3.45,1.15-5.11,1.67c-10.54,3.3-21.33,4.25-32.23,2.75
					c-5.96-0.82-10.32-4.16-12.74-10.04c-4.14-10.05,0.03-21.64,6.29-27.59c8.16-7.74,17.8-12.36,28.67-14.64
					c3-0.63,6.09-0.87,9.14-1.28c0.72-0.1,1.44-0.18,2.33-0.29c-1.17-6.95-1.71-13.97-6.97-19.32c-1.59-1.61-3.52-2.42-5.77-2.49
					c-4.99-0.16-9.9,0.45-14.53,2.27c-3.37,1.75-6.75,4.07-8.99,7.51c-3.59,5.49-6.05,11.42-6.99,17.93
					c-0.15,1.07-0.54,1.62-1.82,1.65c-0.68-1.78-1.39-3.64-2.1-5.49c-1.29-3.39-2.54-6.79-3.9-10.15c-0.38-0.94-0.21-1.5,0.47-2.18
					c3.48-3.46,7.61-6,11.81-8.45c6.26-3.66,12.99-6.07,20.2-6.69c8.42-0.72,16.85-0.77,24.77,2.98c2.26,1.07,4.18,2.51,5.57,4.62
					c2.49,3.77,4.25,7.84,4.66,12.37c0.93,10.29,1.73,20.6,2.67,30.89c0.6,6.63,1.36,13.25,2.05,19.87
					c0.26,2.48,0.59,4.96,0.81,7.44c0.09,1.07-0.65,1.44-1.61,1.46c-4.41,0.08-8.82,0.23-13.24,0.23c-3.14,0-3.14-0.08-3.32-3.29
					C342.33,405.16,342.29,404.63,342.24,403.93z M338.93,359.65c-0.28-0.04-0.47-0.09-0.65-0.09c-6.59,0.07-12.77,1.83-18.53,4.89
					c-3.41,1.81-6.36,4.47-8.13,7.89c-4.01,7.77-4.39,15.93-1.52,24.21c1,2.87,2.93,4.93,5.64,6.26c3.72,1.83,7.65,2.25,11.69,1.48
					c4.41-0.84,8.74-1.88,12.65-4.28c1.38-0.85,1.74-1.73,1.61-3.28c-0.73-9.28-1.35-18.57-2.02-27.85
					C339.45,365.81,339.18,362.74,338.93,359.65z"/>
				<path class="st3" d="M596.03,265.19c0,3.63,0.05,7.15-0.01,10.67c-0.14,8.52-0.47,19.74-0.46,28.26
					c0.05,32.51,0.21,68.25,0.32,100.76c0,0.29,0.02,0.72,0.06,1.01c0.48,3.4-0.68,3.16-2.97,3.36c-4.25,0.36-8.51-0.01-12.77,0.16
					c-2.49,0.1-2.64-0.13-2.65-2.62c-0.09-30.93-0.19-64.69-0.32-95.63c-0.03-6.16-3.39-10.92-10.11-11.83
					c-4.27-0.58-8.51-1.35-12.77-2c-0.77-0.12-1.39-0.24-1.15-1.22c0.19-0.77-0.14-1.79,1.29-1.85c4.99-0.21,10-0.34,14.97-0.85
					c3.86-0.4,7.75-0.96,11.18-3.13c2.32-1.47,3.4-3.85,4.59-6.1c1.69-3.19,3.89-9.05,5.3-12.45c1.01-1.94,1.69-3.79,2.94-5.59
					C594.3,264.93,594.41,265,596.03,265.19z"/>
				<path class="st3" d="M678,366.5c-17.97-0.07-34.19-0.25-52.03,0.51c0,0,0.44,6.94,0.89,8.61c2.19,8.03,4.97,11.76,11.35,17.3
					c11.45,9.95,27.76,9.1,37.4,2.61c0.28-0.19,0.7-0.19,1.05-0.27c0.08,0.4,0.24,0.8,0.21,1.19c-0.04,0.53-0.32,1.04-0.34,1.56
					c-0.07,1.75-1.17,2.66-2.54,3.48c-5.89,3.53-12.25,5.65-19.02,6.66c-7.7,1.15-15.37,0.88-22.94-0.85
					c-9.86-2.24-16.17-8.63-19.77-17.83c-3.76-9.6-4.37-19.64-3.71-29.81c0.33-5.03,1.47-9.88,3.87-14.36
					c4.4-8.23,10.92-13.57,20.29-15.39c7.94-1.54,15.88-1.77,23.57,0.55c12.16,3.66,19.08,12.22,20.95,24.74
					C677.76,358.85,677.75,362.59,678,366.5z M660.43,362.44c-0.51-7.62-1.35-14.97-5.04-21.7c-2.73-4.98-6.86-7.42-12.5-7.02
					c-5.25,0.37-9.73,2.27-12.61,7.04c-0.04,0.07-0.09,0.14-0.13,0.22c-2.7,4.5-4.14,9.64-4.24,14.89c-0.05,2.74-0.1,5.43-0.01,8.03
					C637.91,363.4,648.23,362.92,660.43,362.44z"/>
				<path class="st3" d="M489.03,325.61c3.4-0.16,6.72-0.31,10.04-0.48c3.84-0.21,7.39-1.37,10.47-3.66
					c1.25-0.93,2.48-1.25,4.19-0.93c0,8.78,0,17.61,0,26.68c2.71-2.89,5.11-5.6,7.66-8.15c5.27-5.27,11.36-9.2,18.81-10.54
					c7.63-1.37,14.33,0.74,20.21,5.84c-6.17,5.56-12.26,11.06-18.48,16.67c-1.82-1.79-3.61-3.67-5.53-5.39
					c-1.56-1.4-3.18-2.78-4.95-3.9c-2.79-1.77-5.38-1.55-7.53,0.93c-3.39,3.91-6.53,8.05-9.71,12.14c-0.35,0.45-0.44,1.19-0.45,1.79
					c-0.17,13.29-0.31,26.57-0.47,39.86c-0.04,3.38-0.01,6.97-0.08,10.35c-0.03,1.75-0.41,2.01-2.08,2.03
					c-4.16,0.04-8.58-0.05-12.61-0.05c-2.48-0.07-2.95-0.05-2.93-2.59c0.09-8.62,0.31-17.25,0.32-25.87
					c0.02-10.69-0.14-21.37-0.19-32.06c-0.02-3.03,0.18-6.07,0.04-9.1c-0.19-4.21-2.18-7.61-5.47-10.15
					C489.08,328.09,488.61,327.13,489.03,325.61z"/>
				<path class="st3" d="M369.1,297.94c2.29,0,4.1,0.09,5.89-0.02c5.19-0.33,10.16-1.51,14.88-3.77c0.89-0.43,2.16-0.33,3.29-0.49
					c0.01,0.67,0,1.04,0,1.42c-0.22,35.2-0.45,76.34-0.69,111.54c-0.02,2.65,0.43,2.41-2.44,2.52c-4.1,0.14-8.21,0.19-12.31,0.28
					c-0.53,0.01-1.06,0-1.84,0c0-1.02,0-1.88,0-2.74c0.17-28.38,0.32-62.69,0.53-91.07c0.05-5.96-1.38-11.13-6.49-14.81
					C369.4,300.41,369.45,299.25,369.1,297.94z"/>
				<path class="st3" d="M462.35,403.84c-1.81,0.59-3.45,1.15-5.11,1.67c-10.54,3.3-21.33,4.25-32.23,2.75
					c-5.96-0.82-10.32-4.16-12.74-10.04c-4.14-10.05,0.03-21.64,6.29-27.59c8.16-7.74,17.8-12.36,28.67-14.64
					c3-0.63,6.09-0.87,9.14-1.28c0.72-0.1,1.44-0.18,2.33-0.29c-1.17-6.95-1.71-13.97-6.97-19.32c-1.59-1.61-3.52-2.42-5.77-2.49
					c-4.99-0.16-9.9,0.45-14.53,2.27c-3.37,1.75-6.75,4.07-8.99,7.51c-3.59,5.49-6.05,11.42-6.99,17.93
					c-0.15,1.07-0.54,1.62-1.82,1.65c-0.68-1.78-1.39-3.64-2.1-5.49c-1.29-3.39-2.54-6.79-3.9-10.15c-0.38-0.94-0.21-1.5,0.47-2.18
					c3.48-3.46,7.61-6,11.81-8.45c6.26-3.66,12.99-6.07,20.2-6.69c8.42-0.72,16.85-0.77,24.77,2.98c2.26,1.07,4.18,2.51,5.57,4.62
					c2.49,3.77,4.25,7.84,4.66,12.37c0.93,10.29,1.73,20.6,2.67,30.89c0.6,6.63,1.36,13.25,2.05,19.87
					c0.26,2.48,0.59,4.96,0.81,7.44c0.09,1.07-0.65,1.44-1.61,1.46c-4.41,0.08-8.82,0.23-13.24,0.23c-3.14,0-3.14-0.08-3.32-3.29
					C462.43,405.06,462.39,404.53,462.35,403.84z M459.03,359.56c-0.28-0.04-0.47-0.09-0.65-0.09c-6.59,0.07-12.77,1.83-18.53,4.89
					c-3.41,1.81-6.36,4.47-8.13,7.89c-4.01,7.77-4.39,15.93-1.52,24.21c1,2.87,2.93,4.93,5.64,6.26c3.72,1.83,7.65,2.25,11.69,1.48
					c4.41-0.84,8.74-1.88,12.65-4.28c1.38-0.85,1.73-1.73,1.61-3.28c-0.73-9.28-1.35-18.57-2.02-27.85
					C459.56,365.71,459.28,362.65,459.03,359.56z"/>
			</g>
			<g>
				<path class="st3" d="M391.61,195.71c0,0-0.09-2.31,0.86-2.4c3.31-0.31,6.63-0.52,9.92-1.31c2.56-0.61,9.46-1.46,11.73-4.79
					c1.54-2.25,2.25-5.88,3.04-9.32c1.12-4.88,2.58-13.85,3.51-19.04c0.67-2.97,1.12-5.8,1.95-8.55c0.55-1.82,1.29-2.11,1.29-2.1
					h0.07c0-0.01,0.74,0.28,1.29,2.1c0.83,2.75,1.28,5.58,1.95,8.55c0.93,5.19,2.39,14.15,3.51,19.04c0.79,3.44,1.51,7.07,3.04,9.32
					c2.27,3.33,9.17,4.18,11.73,4.79c3.29,0.78,6.61,0.99,9.92,1.31c0.95,0.09,0.86,2.4,0.86,2.4v-0.02c0,0,0.09,2.31-0.86,2.4
					c-3.31,0.31-6.63,0.52-9.92,1.31c-2.56,0.61-9.46,1.46-11.73,4.79c-1.54,2.25-2.25,5.88-3.04,9.32
					c-1.12,4.88-2.58,13.85-3.51,19.04c-0.67,2.97-1.12,5.8-1.95,8.55c-0.55,1.82-1.29,2.11-1.29,2.1l-0.07,0
					c0,0.01-0.74-0.28-1.29-2.1c-0.83-2.75-1.28-5.58-1.95-8.55c-0.93-5.19-2.39-14.15-3.51-19.04c-0.79-3.44-1.51-7.07-3.04-9.32
					c-2.27-3.33-9.17-4.18-11.73-4.79c-3.29-0.78-6.61-0.99-9.92-1.31c-0.95-0.09-0.86-2.4-0.86-2.4V195.71z"/>
			</g>
		</g>
	</g>
</g>
<g id="LIMITES" class="st1">
	<rect x="644.92" y="288.89" class="st4" width="38.28" height="38.28"/>
	<rect x="139.19" y="217.61" class="st4" width="563.5" height="160.06"/>
	<rect x="702.7" y="179.33" class="st4" width="38.28" height="38.28"/>
	<rect x="100.91" y="377.27" class="st4" width="38.28" height="38.28"/>
	<rect x="100.91" y="179.33" class="st4" width="640.07" height="236.22"/>
	<rect x="702.7" y="377.27" class="st4" width="38.28" height="38.28"/>
	<rect x="100.91" y="179.33" class="st4" width="38.28" height="38.28"/>
</g>
</svg>
